<svg xmlns="http://www.w3.org/2000/svg" width="11.262" height="11.262" viewBox="0 0 11.262 11.262">
  <path id="insta" d="M5.631,1a17.265,17.265,0,0,1,2.252.063,2.9,2.9,0,0,1,1.064.188A2.2,2.2,0,0,1,10.01,2.315,2.9,2.9,0,0,1,10.2,3.379c0,.563.063.751.063,2.252A17.265,17.265,0,0,1,10.2,7.883a2.9,2.9,0,0,1-.188,1.064A2.2,2.2,0,0,1,8.947,10.01a2.9,2.9,0,0,1-1.064.188c-.563,0-.751.063-2.252.063A17.265,17.265,0,0,1,3.379,10.2a2.9,2.9,0,0,1-1.064-.188A2.2,2.2,0,0,1,1.251,8.947a2.9,2.9,0,0,1-.188-1.064C1.064,7.32,1,7.132,1,5.631a17.265,17.265,0,0,1,.063-2.252,2.9,2.9,0,0,1,.188-1.064,2.247,2.247,0,0,1,.438-.626,1.058,1.058,0,0,1,.626-.438,2.9,2.9,0,0,1,1.064-.188A17.265,17.265,0,0,1,5.631,1m0-1A18.486,18.486,0,0,0,3.316.063,3.863,3.863,0,0,0,1.94.313a2.449,2.449,0,0,0-1,.626,2.449,2.449,0,0,0-.626,1,2.851,2.851,0,0,0-.25,1.376A18.486,18.486,0,0,0,0,5.631,18.486,18.486,0,0,0,.063,7.946a3.863,3.863,0,0,0,.25,1.376,2.449,2.449,0,0,0,.626,1,2.449,2.449,0,0,0,1,.626,3.863,3.863,0,0,0,1.376.25,18.486,18.486,0,0,0,2.315.063A18.486,18.486,0,0,0,7.946,11.2a3.863,3.863,0,0,0,1.376-.25,2.625,2.625,0,0,0,1.627-1.627,3.862,3.862,0,0,0,.25-1.376c0-.626.063-.813.063-2.315A18.486,18.486,0,0,0,11.2,3.316a3.863,3.863,0,0,0-.25-1.376,2.449,2.449,0,0,0-.626-1,2.449,2.449,0,0,0-1-.626A3.863,3.863,0,0,0,7.946.063,18.486,18.486,0,0,0,5.631,0m0,2.753A2.832,2.832,0,0,0,2.753,5.631,2.878,2.878,0,1,0,5.631,2.753m0,4.755A1.843,1.843,0,0,1,3.754,5.631,1.843,1.843,0,0,1,5.631,3.754,1.843,1.843,0,0,1,7.508,5.631,1.843,1.843,0,0,1,5.631,7.508m3-5.568a.688.688,0,1,0,.688.688.694.694,0,0,0-.688-.688" fill="#fff" fill-rule="evenodd"/>
</svg>
