<svg xmlns="http://www.w3.org/2000/svg" width="12.738" height="12.191" viewBox="0 0 12.738 12.191">
  <g id="linked" transform="translate(-1514 -732.89)">
    <path id="Path_647" data-name="Path 647" d="M1699.594,893.176l-2.55,0h-.184v-.161c0-1.459,0-2.919-.01-4.378a2.9,2.9,0,0,0-.144-.852,1.208,1.208,0,0,0-1.334-.858,1.5,1.5,0,0,0-1.325,1.118,2.607,2.607,0,0,0-.054.629c0,1.447,0,2.894,0,4.341v.153h-2.725v-8.2h2.726V886.1c.073-.1.123-.17.174-.238a2.681,2.681,0,0,1,2.3-1.1,3.172,3.172,0,0,1,1.639.426,2.789,2.789,0,0,1,1.137,1.342,4.481,4.481,0,0,1,.328,1.434c0,.053.014.106.021.159Z" transform="translate(-172.856 -148.095)" fill="#fff"/>
    <path id="Path_648" data-name="Path 648" d="M1515.692,732.89c.1.02.2.036.3.061a1.4,1.4,0,0,1-.1,2.749,1.7,1.7,0,0,1-1.308-.237,1.331,1.331,0,0,1-.56-.876.762.762,0,0,0-.025-.08v-.373a.315.315,0,0,0,.021-.057,1.327,1.327,0,0,1,.939-1.085,4.052,4.052,0,0,1,.458-.1Z" fill="#fff"/>
    <path id="Path_649" data-name="Path 649" d="M1520.76,892.749h2.711v8.2h-2.711Z" transform="translate(-6.592 -155.882)" fill="#fff"/>
  </g>
</svg>
