<svg xmlns="http://www.w3.org/2000/svg" width="9.459" height="10.728" viewBox="0 0 9.459 10.728">
  <path id="tiktok" d="M739.924,367.429c.687,0,1.323,0,1.959.005a.411.411,0,0,1,.252.12c.845.839,1.685,1.683,2.5,2.5l-1.543,1.514-.966-1.145-.117.074v.536c0,1.216,0,2.432,0,3.648a3.415,3.415,0,1,1-2.635-3.271c.1.025.236.158.238.243.019.708.011,1.417.011,2.186-.126-.086-.2-.138-.276-.189a1.317,1.317,0,0,0-1.95,1.622,1.314,1.314,0,0,0,2.506-.384,3.711,3.711,0,0,0,.02-.478q0-3.243,0-6.486Z" transform="translate(-735.177 -367.428)" fill="#fff"/>
</svg>
