<svg xmlns="http://www.w3.org/2000/svg" width="14.168" height="10.91" viewBox="0 0 14.168 10.91">
  <g id="youtube" transform="translate(-541.194 -354.462)">
    <path id="Path_653" data-name="Path 653" d="M541.194,359.139c.019-.21.029-.421.058-.63a18.885,18.885,0,0,1,.286-1.907,2.509,2.509,0,0,1,2.227-1.862c.683-.066,1.363-.16,2.047-.206.721-.048,1.446-.072,2.169-.071.894,0,1.789.012,2.681.068a20.739,20.739,0,0,1,2.44.271,2.521,2.521,0,0,1,2,2.135,18.077,18.077,0,0,1,.251,3.343,14.205,14.205,0,0,1-.305,2.824,2.561,2.561,0,0,1-2.246,1.987,35.61,35.61,0,0,1-5.751.266,31.658,31.658,0,0,1-3.262-.261,2.619,2.619,0,0,1-1.952-1.178,2.724,2.724,0,0,1-.42-1.214c-.073-.631-.134-1.262-.2-1.894,0-.04-.016-.08-.024-.12Zm7.067,5.372a39.268,39.268,0,0,0,4.466-.309,1.692,1.692,0,0,0,1.471-1.354,15.884,15.884,0,0,0,.02-5.782,1.609,1.609,0,0,0-1.283-1.393,10.03,10.03,0,0,0-1.395-.181c-.7-.057-1.406-.112-2.11-.124-.977-.016-1.955-.021-2.93.023-.891.041-1.779.148-2.668.237a1.669,1.669,0,0,0-1.478,1.344,15.62,15.62,0,0,0-.274,2.689,17.08,17.08,0,0,0,.249,3.094,1.679,1.679,0,0,0,1.4,1.423c.522.081,1.049.15,1.576.185C546.291,364.427,547.276,364.463,548.261,364.511Z" fill="#fff"/>
    <path id="Path_654" data-name="Path 654" d="M728.464,463.34c0-.673,0-1.346,0-2.018a.421.421,0,0,1,.36-.465.514.514,0,0,1,.314.058q1.73,1.02,3.45,2.056a.444.444,0,0,1-.032.8q-1.232.736-2.466,1.469c-.3.181-.614.354-.912.546a.46.46,0,0,1-.72-.408C728.478,464.7,728.464,464.018,728.464,463.34Zm.895,1.292,2.141-1.275-2.141-1.28Z" transform="translate(-182.074 -103.441)" fill="#fff"/>
  </g>
</svg>
